<svg id="Layer_1" data-name="Layer 1" xmlns="http://www.w3.org/2000/svg" viewBox="0 0 100 100"><title>skills</title><path d="M50.3742,3.2891c12.0483,0,24.0978.0929,36.144-.0657,2.99-.0394,4.0332.37,3.7053,3.8053q-3.5319,37.0052-6.56,74.0575c-.3225,3.9336-1.36,6.1316-5.5333,7.3046-9.5276,2.6779-18.8775,8.4032-28.2924,8.3881-9.4209-.0151-18.7756-5.7-28.2776-8.4977-3.7167-1.0944-4.8784-3.0168-5.1814-6.6833Q13.2814,44.1319,9.7708,6.7007c-.2607-2.81.4031-3.509,3.1985-3.4759C25.436,3.373,37.9056,3.2892,50.3742,3.2891ZM50.04,20.1322c-7.5664,0-15.1336.0567-22.6988-.0388-1.9579-.0247-2.7076.3558-2.4864,2.5406.86,8.4987,1.6218,17.01,2.2179,25.5309.157,2.2439.9736,2.7353,3.0506,2.7058,7.705-.11,15.4125-.0432,23.119-.0431,9.4417,0,9.3762-.0069,8.372,9.4987-.2662,2.52-1.1127,3.6882-3.7378,4.57a25.0224,25.0224,0,0,1-15.9685-.0342c-2.6188-.8027-3.9578-1.865-3.59-4.5353.5309-3.8548-1.2571-4.9994-4.78-4.4356a8.62,8.62,0,0,1-2.5165.0016c-2.4069-.3357-3.2059.6025-2.9187,3.0161.43,3.6129.6945,7.2523.848,10.8881.0752,1.7818.9317,2.2892,2.501,2.69,5.6849,1.452,11.3264,3.0738,16.9817,4.641a6.6625,6.6625,0,0,0,3.7186-.0626c5.3725-1.5391,10.73-3.1467,16.1543-4.4807,2.0024-.4925,2.6418-1.33,2.7926-3.358.6337-8.5178,1.3763-17.0311,2.3049-25.5213.2918-2.6678-.416-3.34-3.0522-3.2927-8.8246.1589-17.6539.06-26.4814.06-7.13,0-7.0016-.0178-7.9825-7.0775-.3748-2.6979.3416-3.2783,2.9558-3.2367,9.6658.1539,19.3355.0612,29.0037.0612,6.8118,0,6.6507-.0175,7.3848-6.7842.3228-2.9756-.738-3.4118-3.3347-3.3572C64.6145,20.2318,57.3262,20.132,50.04,20.1322Z"/></svg>