<svg id="Layer_1" data-name="Layer 1" xmlns="http://www.w3.org/2000/svg" viewBox="0 0 100 100"><title>skills</title><path d="M11.899,3.4321A8.4646,8.4646,0,0,0,3.4321,11.899V88.101a8.4646,8.4646,0,0,0,8.4669,8.4669H88.101a8.4646,8.4646,0,0,0,8.4669-8.4669V11.899A8.4646,8.4646,0,0,0,88.101,3.4321ZM65.7018,27.791h7.177V71.6881H65.9333V66.6857h-.4961c-1.795,3.4714-5.4409,5.5233-9.8394,5.5233-8.0181,0-13.0228-6.3-13.0228-16.3715,0-10.0121,5.0343-16.3219,13.0228-16.3219,4.3393,0,7.9355,2.085,9.6162,5.5564h.4878ZM27.1212,29.9325h7.4664V71.6881H27.1212ZM57.83,45.6177c-4.89,0-7.9046,3.8775-7.9046,10.2446,0,6.3967,2.9854,10.2446,7.9046,10.2446,4.9489,0,7.9542-3.8775,7.9542-10.2446C65.7845,49.5545,62.7495,45.6177,57.83,45.6177Z"/></svg>