<svg id="Layer_1" data-name="Layer 1" xmlns="http://www.w3.org/2000/svg" viewBox="0 0 100 100"><title>skills</title><path d="M11.21,2.5905a8.6175,8.6175,0,0,0-8.62,8.62V88.79a8.6175,8.6175,0,0,0,8.62,8.62H88.79a8.6175,8.6175,0,0,0,8.62-8.62V11.21a8.6175,8.6175,0,0,0-8.62-8.62ZM30.2348,28.9974H38.779l15.11,42.5187H45.7321L42.1377,60.64H26.4889L22.8355,71.5161H15.15ZM34.09,37.1038,28.2566,54.63H40.37l-5.7747-17.526Zm38.1245,1.5321c9.1931,0,14.706,6.0962,14.706,16.2633v2.357H64.4114v.3788c.1767,5.3616,3.2671,8.7209,8.0727,8.7209,3.62,0,6.1286-1.3246,7.1889-3.7123h6.9195c-1.3792,5.8658-6.72,9.5206-14.3188,9.5206-9.4862,0-15.2027-6.2808-15.2027-16.6506S62.8794,38.6359,72.2148,38.6359ZM72.19,44.4274c-4.3617,0-7.4253,3.1263-7.7529,7.837H79.6141C79.4632,47.4933,76.5727,44.4274,72.19,44.4274Z"/></svg>