<svg id="Layer_1" data-name="Layer 1" xmlns="http://www.w3.org/2000/svg" viewBox="0 0 100 100"><title>skills</title><path d="M77.74,38.5788,49.9569,92.984,22.1787,38.5788Z"/><path d="M46.1836,7.8046c-.4944,2.3965-2.816,3.099-3.2624,5.4976,2.863-.4758,3.8428-2.8642,5.3588-4.4056,1.2716-1.2927,2.0453-1.6125,3.2631-.0518a31.8513,31.8513,0,0,0,3.6552,3.9184c.8463.7713,1.6478,2.9066,2.7291,1.8671,1.29-1.24-.8632-2.1857-1.6089-3.1651-1.04-1.3659-2.2695-2.5874-3.9356-4.4493,8.08.85,15.2652,1.6558,22.4629,2.3284,1.7131.16,2.0229.9639,2.092,2.4645.3115,6.7652.9145,13.523,1.01,20.2891.0338,2.3837-1.056,4.7256-4.3076,4.7195q-23.7741-.0449-47.5483.0016c-3.1339.0065-4.1458-2.3-4.1128-4.5244.1022-6.8941.6926-13.78,1.0242-20.6724.0643-1.3378.34-2.1634,1.8822-2.2367C31.887,9.0533,38.7863,7.2991,46.1836,7.8046Zm28.988,26.6686,1.2728-1.1615c-2.4473-2.6377-4.8852-5.2845-7.352-7.9038a.7491.7491,0,0,0-1.2649.0729,1.079,1.079,0,0,0,.06,1.0048C70.2911,29.17,72.7367,31.8169,75.1716,34.4731ZM32.6266,25.9473l-1.2494-1.12c-2.4779,2.9682-5.6634,5.3462-7.6075,8.76l.9794.8391ZM59.5376,15.44c-.6815.3682-.9912.9189-.499,1.4712,2.094,2.3495,4.2493,4.6453,6.4125,6.9319a.7123.7123,0,0,0,1.2281-.1057,1.5246,1.5246,0,0,0-.2887-1.3013c-1.9168-2.1719-3.8876-4.2967-5.8647-6.4145A4.3,4.3,0,0,0,59.5376,15.44Zm-25.335,7.7466c2.7875-2.2264,5.5685-4.4862,6.9456-7.8719C38.2712,17.4737,35.5709,19.7609,34.2025,23.1868Z"/><path d="M2.7306,38.4541c5.6276,0,10.4528.068,15.2743-.0378A3.0625,3.0625,0,0,1,21.23,40.39q10.5142,20.7835,21.17,41.4954c.5309,1.0362,1.0709,2.01.4207,3.2863Z"/><path d="M56.42,84.318C63.6637,70.1786,71.0139,56.0918,78.06,41.8546c1.3724-2.7728,2.893-3.6367,5.8108-3.4635,4.162.2471,8.35.0629,13.3259.0629L57.2982,85.0886Z"/><path d="M21.076,12.9308c-.34,7.3795-.7048,14.758-.9988,22.1393-.0524,1.316-.5485,1.7631-1.8385,1.7509C13.29,36.7739,8.3409,36.8018,2.6,36.8018l17.7423-24.12Z"/><path d="M78.8274,11.8175,97.4,36.7991c-5.75,0-10.6636-.0213-15.5768.0146-1.2716.0092-1.82-.4637-1.8775-1.7671C79.6218,27.7011,79.2447,20.3579,78.8274,11.8175Z"/></svg>