<svg id="Layer_1" data-name="Layer 1" xmlns="http://www.w3.org/2000/svg" viewBox="0 0 100 100"><title>skills</title><path d="M6.9332,75.3273c9.2679-.3647,18.2981,1.6221,27.4152,2.8609q16.4016,2.2286,32.7358,4.94c3.01.4968,3.12-.8444,3.1157-3.12q-.0705-35.6829-.0286-71.3661c0-1.42,0-2.8392,0-4.8719,7.6637,3.1829,14.9217,6.2085,22.1913,9.206,1.2884.5313,1.1076,1.6053,1.1078,2.6214q.0085,34.5131.0457,69.0261a2.9446,2.9446,0,0,1-2.2109,3.1271q-9.7507,3.9439-19.4487,8.0175a4.3314,4.3314,0,0,1-3.3353.2244Q37.7468,85.6023,6.9332,75.3273Z"/><path d="M6.4838,56.28c3.7822-3.8679,7.2438-7.5437,10.87-11.05,1.4692-1.4207,1.492-2.2822-.0034-3.718-3.6458-3.5006-7.11-7.1908-10.7207-10.88,2.8972-2.09,5.4449-1.849,8.1209.6078,2.19,2.0109,4.861,3.4927,7.1018,5.4567,1.7925,1.5709,2.897,1.311,4.5-.3238,5.64-5.7531,11.49-11.3,17.1548-17.0309,1.4973-1.5148,2.7186-1.774,4.7576-.95,10.1323,4.0936,10.1616,4.0218,10.1616,14.98,0,9.228-.0686,18.4567.05,27.6832.0272,2.1242-.5734,3.2206-2.58,4.095-10.1184,4.4086-10.0918,4.4682-18.0965-3.4275-3.7937-3.7421-7.7009-7.378-11.3361-11.2682-1.761-1.8846-3.0367-1.8041-4.8562-.2445-2.0671,1.7719-4.34,3.3038-6.5247,4.9384C11.2461,58.0176,11.2457,58.0171,6.4838,56.28ZM45.5852,32.2946c-4.79,3.5657-8.9462,6.637-13.069,9.7528-.641.4844-1.8837,1.1211-.67,2.06,4.4045,3.4058,8.8964,6.6985,13.739,10.321Z"/></svg>