<svg id="Layer_1" data-name="Layer 1" xmlns="http://www.w3.org/2000/svg" viewBox="0 0 100 100"><title>skills</title><path d="M80,22.13c-.386,2.9276-.6214,6.015-1.2486,9.0205-.4331,2.0757.057,2.8756,2.1221,3.5262a41.8589,41.8589,0,0,1,13.3091,6.7777c6.8834,5.3682,6.984,11.3226.2732,16.935a36.28,36.28,0,0,1-12.8875,6.7244c-2.3585.7183-3.29,1.4683-2.59,4.2538a32.0957,32.0957,0,0,1,.406,14.529c-1.6232,7.7322-6.64,10.8747-14.1447,8.52a33.3035,33.3035,0,0,1-13.0785-7.9078c-1.5789-1.5127-2.43-1.4728-4.0175-.0584C43.9022,88.23,39.2686,91.4315,33.615,92.832c-6.2322,1.5438-10.5379-.8506-12.4354-7.04-1.6324-5.3244-1.2147-10.7169-.0157-16.0087.5643-2.4906.1784-3.5533-2.3766-4.3546a35.2047,35.2047,0,0,1-14.576-8.33c-4.8862-4.84-4.83-9.53.1175-14.3583,4.1549-4.0549,9.3448-6.319,14.7538-8.002,2.2857-.7112,2.7386-1.7667,2.2732-3.8729a37.6331,37.6331,0,0,1-.7538-14.1575c1.263-7.9343,6.3893-11.3264,14.0806-9.0931a32.673,32.673,0,0,1,13.3644,8.1417c1.5645,1.4915,2.5064,1.4378,4.0486-.0194A33.9129,33.9129,0,0,1,65.38,7.4618c7.1312-2.1794,11.8161.4076,13.6095,7.6465A69.2665,69.2665,0,0,1,80,22.13ZM49.89,65.1333c7.1208,2.2853,10.546-1.7151,13.868-7.2521,3.2854-5.4762,3.7156-9.8477.2036-15.5611-3.4113-5.55-6.8923-8.1567-13.77-8.154C43.08,34.169,39.28,36.5813,35.877,42.6769c-3.08,5.5168-2.9583,9.6164.1736,14.8735C39.3569,63.1,42.4755,67.7362,49.89,65.1333ZM4.9745,50.0684a6.7156,6.7156,0,0,0,2.51,5.0048c4.1,3.4489,9.0125,5.2973,13.97,7.0716,1.4577.5217,1.7543-.3892,2.1585-1.3815,2.5408-6.2367,5.4966-12.4315.8342-19.012a13.7945,13.7945,0,0,1-1.07-2.8664c-.3068-.763-.6636-1.1569-1.7093-.7829C16.34,40.0076,11.0332,41.9224,6.9,46.0225A5.3437,5.3437,0,0,0,4.9745,50.0684Zm90.0565-.1366c.1025-1.64-.975-2.9315-2.1706-4.1035A29.5932,29.5932,0,0,0,83.4628,39.99c-6.1005-2.5971-6.0905-2.5863-8.3348,3.4493a52.6206,52.6206,0,0,1-2.0505,4.956,3.4858,3.4858,0,0,0,.0172,3.2423c1.22,2.81,2.3094,5.6782,3.3775,8.5505.5123,1.3777,1.1312,2.0768,2.7641,1.4747,4.8269-1.78,9.49-3.8366,13.36-7.3292C93.8347,53.2158,94.9868,51.9845,95.031,49.9318ZM75.6157,21.9668a47.1938,47.1938,0,0,0-.5765-5.3274c-1.17-5.3263-3.8545-6.857-8.9553-5.028-4.5276,1.6234-8.2814,4.5236-11.9021,7.6271-1.2544,1.0752-.817,1.7574-.0306,2.8155,3.8316,5.1558,7.5715,9.884,15.1137,9.9657,4.8937.053,4.84.8332,5.6226-3.9323A37.0287,37.0287,0,0,0,75.6157,21.9668ZM24.55,21.4606c0,.9-.0536,1.803.0084,2.6984.5655,8.1613.5746,8.1879,8.6109,7.2359,2.9847-.3536,5.7718-.5071,8.019-3.4677,6.6951-8.8207,6.8527-8.7674-2.9378-14.29C28.8324,8.3249,24.616,10.7264,24.55,21.4606Zm-.0073,56.4881a39.0791,39.0791,0,0,0,.0225,4.2254c.6506,5.9466,4.527,8.2961,10.0049,5.9657a37.1956,37.1956,0,0,0,6.7357-3.617c6.0572-4.23,5.8988-4.2206,1.5328-10.1019-2.2528-3.0347-4.3276-5.3865-8.663-5.7366C24.67,67.9167,24.3257,67.9555,24.5423,77.9487Zm50.9663.5172c.3565-10.8537.1418-10.9745-9.9675-9.7606-3.144.3775-5.6066,1.2962-7.0208,4.2808-1.2488,2.6354-5.5221,4.4957-4.4181,7.1461,1.0651,2.5571,4.6127,4.24,7.3063,5.9291C69.7164,91.2715,75.9065,90.5429,75.5086,78.4659ZM55.3743,30.1417C50.041,22.84,50.039,22.838,45.1025,29.3734c-.099.131.0217.4278.05.7683ZM30.3289,44.6327l5.181-9.1374c-8.8122.2477-9.2726.9718-5.7282,8.4689A4.212,4.212,0,0,0,30.3289,44.6327ZM69.71,44.63c4.3249-7.2793,3.8636-8.2825-4.1076-9.2311a3.86,3.86,0,0,0-.9695.2117ZM64.4736,64.56c10.5681-1.5636,9.0933.42,5.9624-8.5015-.06-.172-.4027-.245-.7355-.4331ZM30.2758,55.4192C26.0249,63,26.3916,63.7638,34.589,64.6378c.1885.02.4005-.1807.7242-.338ZM44.75,70.032c1.8571,2.5546,3.257,5.8213,5.3035,5.8,2.2608-.0235,3.4145-3.4044,5.2942-5.8Z"/><path d="M58.82,49.9693a8.8159,8.8159,0,1,1-8.7582-8.7761A8.7325,8.7325,0,0,1,58.82,49.9693Z"/></svg>