<svg id="Layer_1" data-name="Layer 1" xmlns="http://www.w3.org/2000/svg" viewBox="0 0 100 100"><title>skills</title><path d="M97.1358,49.9988c0,11.9211.0309,23.8423-.0114,35.7632-.0265,7.4525-3.9533,11.3527-11.4636,11.3617q-35.7632.0431-71.5264-.0029C6.902,97.11,2.8949,93.15,2.883,85.9746q-.06-35.9735,0-71.9471C2.8949,6.8478,6.8978,2.89,14.1323,2.8793q35.7632-.0534,71.5264-.003c7.5128.009,11.4392,3.9069,11.4657,11.3593C97.167,26.1566,97.1358,38.0777,97.1358,49.9988ZM25.1832,65.2653C17.6088,69.8209,16.4846,77.5331,22.904,81.17a19.2284,19.2284,0,0,0,17.783.8529c4.3-1.8666,5.5051-5.6744,5.4155-10.0308-.0817-3.9706-2.5877-5.9936-5.985-7.2134-1.4427-.518-2.9358-.8951-4.4044-1.342-1.9984-.6082-4.3386-.9588-4.4787-3.6582-.1479-2.8544,2.3787-3.0963,4.264-3.8016,5.9758-2.2355,8.8707-6.2925,8.4419-12.4139-.1116-1.5923.1632-2.1656,1.5633-3.178,2.1534-1.5572,1.2605-4.52.6861-6.5876-.4764-1.7137-2.349.0028-3.6053.1041-2.2046.1779-4.2731.4357-6.5625-.41a12.98,12.98,0,0,0-15.19,4.899C17.78,43.2375,18.7939,49.3348,23.44,54.0117c.5953.5992,1.9156.7182.8809,2.1547C22.019,59.3631,22.8558,62.4437,25.1832,65.2653Zm56.0739-7.2639c-6.8337,1.182-7.6744.461-7.695-6.3516a73.156,73.156,0,0,0-.0542-7.5469c-.3494-3.2534.6925-4.563,4.07-4.1447,1.1554.1431,2.8531.9355,3.6412-.8946,1.4495-3.3658-.321-6.0892-4.037-5.9913-2.3758.0626-4.2021-.0643-3.6135-3.2224.7292-3.9129-2.17-2.9449-4.1891-2.9636-1.9365-.018-4.5025-.8-3.8965,2.8752.2684,1.628.4479,3.2952-2.2778,3.3807-2.1689.0681-1.2106,2.1722-1.2018,3.3522.0089,1.19-.9682,3.3271,1.13,3.4074,3.0261.1158,2.4081,2.0486,2.433,3.7551.0758,5.1713-.33,10.3742.5163,15.4992.9156,5.5417,4.8486,7.6663,11.4029,6.8046C83.2156,65.2071,80.794,61.1048,81.2571,58.0014ZM50.07,49.086c0,4.7661.1613,9.5394-.0527,14.2958-.1612,3.5843,2.3508,2.4941,3.9545,2.37,1.6387-.1272,4.4727,1.6441,4.4176-2.328-.1279-9.25-.2027-18.5069.0247-27.753.0953-3.8738-2.4614-2.5813-4.1837-2.56-1.6984.021-4.4373-1.3926-4.2115,2.5218C50.2769,40.1032,50.0787,44.6,50.07,49.086ZM59.219,21.8519c.0229-2.6806-2.2736-5.3035-4.7692-5.4473a5.3489,5.3489,0,0,0-5.2178,5.3887c.084,3.0062,1.6268,5.0278,4.7151,5.3845C56.5962,27.4838,59.1943,24.7309,59.219,21.8519Z"/><path d="M36.3368,44.891c-.2336,2.7254-1.1694,4.9547-4.4,5.0526-3.06.0928-4.6716-1.4961-4.7436-4.5792-.0739-3.1614,1.013-5.8236,4.4663-5.9316C34.9267,39.3306,35.9748,41.9877,36.3368,44.891Z"/><path d="M32.5859,77.0657c-2.5783-.23-5.8772-.0491-5.9645-3.6169-.0926-3.7814,3.2443-4.0318,6.0643-4.0217,2.662.0095,5.7478.2254,5.7339,3.8732C38.4057,77.02,35.315,76.9378,32.5859,77.0657Z"/></svg>