<svg id="Layer_1" data-name="Layer 1" xmlns="http://www.w3.org/2000/svg" viewBox="0 0 100 100"><title>skills</title><path d="M30.7046,61.4088c-.7854.41-1.5442.886-2.3619,1.2156-1.7421.7023-1.7813,1.7859-1.3074,3.474,2.637,9.394-4.8813,19.4626-14.46,19.5157-5.1381.0285-7.8442-3.2065-6.8918-8.2715A12.5314,12.5314,0,0,1,10.14,70.1948c3.2137-2.8255,7.1421-4.5139,10.95-7.0133-3.0683-2.2394-6.0021-4.3749-8.93-6.519a31.3093,31.3093,0,0,1-7.2555-6.94c-2.6422-3.707-3.1493-7.535-1.0041-11.6759,3.502-6.76,9.0971-11.4089,15.5-15.103,8.5321-4.9227,17.4256-8.91,27.63-8.5335a23.7818,23.7818,0,0,1,7.528,1.4455c6.83,2.5628,9.5018,8.0933,6.9369,14.9518-3.362,8.99-10.5005,13.5222-19.4516,15.5813A22.89,22.89,0,0,1,30.3,46.4218a8.0915,8.0915,0,0,1-6.2082-6.3045c5.44,4.6807,10.8738,4.3877,16.4166,2.7023a27.2691,27.2691,0,0,0,13.7241-8.87,14.1962,14.1962,0,0,0,2.5139-4.6682c1.25-3.96-.1132-6.891-4.02-8.21-4.6631-1.5743-9.4163-1.1515-14.0423.0739A56.7,56.7,0,0,0,15.6142,33.3913a22.488,22.488,0,0,0-3.2064,3.4813c-4.0666,5.4635-3.7658,10.3443,1.1815,15.0438,3.22,3.0582,6.8049,5.728,10.1279,8.6826.9176.8159,1.527.53,2.3149.0487,3.5888-2.1917,7.7128-3.54,10.479-7.03a9.9851,9.9851,0,0,1,3.3406-2.3995c3.3023-1.6761,5.3542-.4845,5.6235,3.2192.0732,1.0069-.1761,1.7071,1.4222,1.7068,1.8894,0,1.5532,1.6322,1.2575,2.9131-.7506,3.2509-1.849,6.4351-1.9733,9.81,1.0066.356,1.05-.51,1.2242-.8854,2.8222-6.08,5.8365-12.0772,8.0591-18.4189a4.1917,4.1917,0,0,1,5.4167-2.51c1.46.5461.871,1.51.5457,2.4229a10.0267,10.0267,0,0,0,.87,9.18c2.3492-3.798,4.8465-7.3839,5.8919-11.5687.6518-2.6092,2.055-2.999,4.2144-3.0278,1.854-.0247,2.5241.5838,1.8848,2.471a11.3813,11.3813,0,0,0,.4725,8.909c.7225,1.5194,1.335,1.6288,2.8393,1.1064,5.502-1.91,10.9138-1.82,15.8325,1.6955,4.3172,3.0854,5.2531,8.1618,2.2711,11.5427-.8331.9445-1.73,1.8363-3.3075,1.6835,4.6964-5.6382,2.88-10.7238-4.2656-12.4089a20.083,20.083,0,0,0-9.1143-.1328c-1.4736.33-2.2726.62-1.8486,2.6406.9317,4.4418-3.6549,9.6084-8.2456,9.651-1.7.0158-2.5031-.9405-2.4228-2.6474a10.1154,10.1154,0,0,1,3.5237-6.97c1.4267-1.3373,1.9473-2.3791.7952-4.21-.7979-1.2684-1.0377-2.8879-1.6525-4.7259-1.836,3.0835-3.5347,5.9221-5.2176,8.77-.607,1.0271.213,1.91.4078,2.8256,1.1972,5.6261-4.7041,11.4323-10.2672,9.9965-1.8015-.465-2.2181-1.6082-1.1033-3.09,1.5442-2.053,3.099-4.1145,4.8352-6.0012a3.1556,3.1556,0,0,0,.5336-4.1963,41.0694,41.0694,0,0,1-1.96-5.2761c-2.0924,4.3929-3.9887,8.5265-6.0278,12.5885a54.852,54.852,0,0,1-3.3529,5.5755c-.7224,1.0925-1.7072,2.0219-3.1978,1.6743-1.4149-.33-1.6114-1.6282-1.8674-2.77-.2146-.9574-.2591-1.953-.4383-3.4168-.97,1.8684-1.7586,3.3934-2.5519,4.9161-.7715,1.4811-1.78,2.5939-3.6469,2.5338-1.9109-.0615-2.6917-1.4555-3.4373-2.8595-2.0383-3.8382-1.55-7.8388-.6873-11.8539l.2223-.7539Zm25.3906,9.1659c.6557.424,1.2412.474,1.6693-.3136,1.6313-.7356,2.4387-2.0447,2.9167-4.3692L57.326,69.82q-.6208.3878-1.2409.7747c.0694.1413.1683.4119.2034.4039.333-.0763.3131-.1451-.04-.1884C56.1884,70.8029,56.1457,70.6567,56.0952,70.5747Zm-32.24-1.8381c.0163-2.5058-.4963-3.4931-1.4175-2.909-4.2106,2.67-8.8653,4.9163-10.638,10.1581-.4216,1.2466-.8265,2.539.2721,3.5812,1.0548,1.0007,2.3485.724,3.6246.3329A12.0547,12.0547,0,0,0,23.8556,68.7366Zm11.4193-1.8187a6.644,6.644,0,0,0,.0105,1.2215c.2424.9885-.1645,2.5188,1.15,2.72,1.0869.1666,1.36-1.2418,1.7647-2.0984a96.3762,96.3762,0,0,0,4.4478-11.8976c.2661-.8309.6891-1.9583-.0819-2.4987-.8036-.5632-1.688.2367-2.3146.8587A17.8676,17.8676,0,0,0,35.2749,66.9179Zm38.0565-5.5756c-2.0389,2.3211-3.4717,4.1006-3.68,6.8168C72.6452,67.01,73.7556,65.0569,73.3314,61.3423Z"/><path d="M57.7645,70.2611c-.4281.7875-1.0135.7376-1.6693.3136l-.011.0211L57.326,69.82Z"/><path d="M56.0952,70.5747c.0505.082.0932.2282.1528.2356.3536.0434.3735.1121.04.1884-.0351.008-.1341-.2626-.2039-.4034Z"/><path d="M30.7046,61.4088l.7043-.0822q-.1112.377-.2222.7539Z"/></svg>