<svg id="Layer_1" data-name="Layer 1" xmlns="http://www.w3.org/2000/svg" viewBox="0 0 100 100"><title>skills</title><path d="M97.1357,50.2533q0,17.4609-.0055,34.9218c-.0151,8.125-3.7412,11.9427-11.7251,11.95q-35.3424.0339-70.6848.0012C6.674,97.12,2.8806,93.3332,2.8738,85.2979q-.03-35.3425.0008-70.6851c.0075-7.99,3.8234-11.736,11.933-11.7421Q49.94,2.8447,85.072,2.87c8.3561.0054,12.0449,3.6959,12.0587,12.0409Q97.16,32.582,97.1357,50.2533ZM73.9882,89.6394c8.3191.1,13.8337-3.303,15.33-8.77,1.7572-6.4188-.84-11.8307-7.6012-15.5112-2.6929-1.4659-5.56-2.6094-8.2776-4.0328-2.52-1.32-4.0963-3.3789-2.2993-6.1166,1.6846-2.5665,4.9232-2.7675,6.583-.8063,3.1382,3.7079,5.1191.8629,7.5722-.404,1.64-.8467,1.729-1.6615.6175-3.1873C82.91,46.6888,76.6473,44.6,70.7824,46.0124a11.5946,11.5946,0,0,0-8.9985,9.4254c-.7925,5.8988,1.334,10.2816,6.6928,13.2631,2.8,1.558,5.8044,2.7454,8.6472,4.2326,2.1432,1.1212,4.3367,2.4856,3.5324,5.4295-.8031,2.94-3.3037,3.5427-5.9669,3.58-2.0333.0285-4.2987-.4267-5.3215-2.0271-2.9136-4.5593-5.6307-1.9378-8.5826-.2855-1.5149.848-1.4424,1.5834-.5367,2.8757A16.2121,16.2121,0,0,0,73.9882,89.6394ZM54.1491,63.3445h.0545c0-4.6241-.257-9.2672.0826-13.8662.2643-3.58-1.7081-3.4325-4.0765-3.2652-2.2874.1617-5.08-1.0663-4.9169,3.3667.3137,8.536.1527,17.0926.0447,25.6388-.0289,2.2843.2638,4.9417-2.626,6.0779-2.9684,1.1671-4.9127-.2686-6.9679-2.3225-2.8794-2.8774-4.4065,1.106-6.5522,1.8376-2.3594.8045-.477,2.316.14,3.27,2.9693,4.5942,9.641,6.7377,15.7511,5.1987,5.527-1.3921,8.7733-5.4043,9.0283-11.6462C54.3048,72.8786,54.1491,68.1084,54.1491,63.3445Z"/></svg>