<svg id="Layer_1" data-name="Layer 1" xmlns="http://www.w3.org/2000/svg" viewBox="0 0 100 100"><title>skills</title><path d="M11.21,2.5905a8.6175,8.6175,0,0,0-8.62,8.62V88.79a8.6175,8.6175,0,0,0,8.62,8.62H88.79a8.6175,8.6175,0,0,0,8.62-8.62V11.21a8.6175,8.6175,0,0,0-8.62-8.62Zm8.62,25.826H36.9776c8.4863,0,14.2935,5.8052,14.2935,14.3777,0,8.426-6.0192,14.201-14.6218,14.201H27.4317v13.94H19.83ZM27.4317,34.78V50.69h7.5172c5.4219,0,8.6031-2.8275,8.6031-7.896,0-5.2107-3.1-8.0138-8.5778-8.0138Zm40.7,3.2661c7.6588,0,12.4671,3.39,12.9972,9.2512H74.2687c-.53-2.267-2.6852-3.7123-6.103-3.7123-3.3273,0-5.8336,1.5954-5.8336,3.9227,0,1.8274,1.5318,2.9459,4.7729,3.6786l5.6821,1.2964c6.1589,1.3835,9.0155,4.0389,9.0155,8.78,0,6.1934-5.6872,10.32-13.73,10.32s-13.11-3.4823-13.6706-9.3438h7.2225c.7068,2.3877,2.97,3.8049,6.6249,3.8049,3.6807,0,6.2461-1.6192,6.2461-4.0069,0-1.8274-1.38-2.9808-4.4446-3.6618l-5.7157-1.3216c-6.1891-1.4137-9.1-4.2718-9.1-9.1334C55.2359,42.0851,60.5293,38.0466,68.1321,38.0466Z"/></svg>