<svg id="Layer_1" data-name="Layer 1" xmlns="http://www.w3.org/2000/svg" viewBox="0 0 100 100"><title>skills</title><path d="M50.0216,3.1037c12.3284,0,24.6578.08,36.9846-.0619,2.7544-.0318,3.4865.6049,3.2218,3.4539q-3.4786,37.4326-6.6122,74.8966c-.3023,3.65-1.4264,5.6124-5.1625,6.7005-8.5732,2.4969-17.0127,5.4635-25.46,8.375a8.7121,8.7121,0,0,1-6.0479-.0236c-8.8432-3.047-17.691-6.0948-26.6275-8.8489-2.5766-.794-3.55-1.9865-3.7673-4.5856-1.69-20.2322-3.4918-40.4552-5.2664-60.68-.4406-5.0211-.7451-10.062-1.4247-15.0513-.4175-3.0656-.069-4.3509,3.599-4.2727C25.6415,3.2652,37.8333,3.1037,50.0216,3.1037Zm-.564,26.7879.0839.84C43.9,33.0924,38.3723,35.801,32.58,37.7054,27.8,39.2772,26.0733,41.63,27.075,46.7207c.5189,2.6371,1.09,3.471,3.7667,3.4272,9.25-.1513,18.507.06,27.7561-.1251,3.0751-.0617,4.0453.4941,3.6405,3.8856-1.1779,9.87-1,9.89-10.671,11.9691-3.1885.6854-5.9646-1.1515-8.9889-1.4619-2.5547-.2622-4.0517-1.3563-3.7416-4.2258.44-4.0663-1.55-5.4724-5.42-4.7791a10.6982,10.6982,0,0,1-2.9377.0088c-1.8755-.1927-2.4606.574-2.2615,2.4121.3771,3.4815.7643,6.978.8155,10.4731.034,2.3237,1.25,3.0539,3.1428,3.6518,17.1,5.4,17.0951,5.416,34.63.2563a12.4985,12.4985,0,0,1,1.6269-.412c2.0221-.3081,2.5218-1.5171,2.67-3.4738.6258-8.2417,1.3133-16.485,2.2924-24.69.3654-3.0622-.7656-3.4646-3.3593-3.3976-5.9047.1525-11.816.0481-17.7247.0481A89.4616,89.4616,0,0,1,69.01,32.3113c4.4164-1.4891,5.9608-4.0691,6.1841-8.45.15-2.9366-.0768-4.0741-3.5394-4.0143-13.875.24-27.7567.0991-41.6358.0991-5.5754,0-5.1608-.0223-4.8592,5.5412.2244,4.1388,2.0654,4.5848,5.46,4.4664C36.8922,29.7353,43.1776,29.8916,49.4576,29.8916Z"/></svg>