<svg id="Layer_1" data-name="Layer 1" xmlns="http://www.w3.org/2000/svg" viewBox="0 0 100 100"><title>skills</title><path d="M11.899,3.4321A8.4646,8.4646,0,0,0,3.4321,11.899V88.101a8.4646,8.4646,0,0,0,8.4669,8.4669H88.101a8.4646,8.4646,0,0,0,8.4669-8.4669V11.899A8.4646,8.4646,0,0,0,88.101,3.4321ZM69.7285,25.6494c2.6332,0,4.4319,1.6786,4.4319,3.9689s-1.7987,3.9689-4.4319,3.9689c-2.6036,0-4.4236-1.6786-4.4236-3.9689S67.1249,25.6494,69.7285,25.6494ZM36.4232,28.6343h8.3925L59.6575,70.3982H51.6454L48.1148,59.7237H32.752L29.1553,70.3982H21.6062ZM40.21,36.5886,34.4884,53.8118h11.89L40.7063,36.5886Zm25.9629,2.15H73.317v31.66H66.1731Z"/></svg>