<svg id="Layer_1" data-name="Layer 1" xmlns="http://www.w3.org/2000/svg" viewBox="0 0 100 100"><title>skills</title><path d="M43.352,26.3355C42.7,25.192,42.2209,24.39,41.777,23.5688q-5.13-9.49-10.2414-18.9891c-.5573-1.038-1.1892-1.8614-2.54-1.674-1.3946.1935-1.7177,1.2567-1.8949,2.374Q25.314,16.5445,23.5674,27.8158q-3.864,24.631-7.7656,49.256a2.2657,2.2657,0,0,0,1.32,2.7652q14.5325,8.0493,29.0064,16.2043a6.9831,6.9831,0,0,0,7.3185.0866Q68.378,87.8225,83.34,79.5739a1.5117,1.5117,0,0,0,.869-1.888c-.8317-4.806-1.5791-9.6266-2.3613-14.4413-2.0943-12.89-4.1687-25.7843-6.3395-38.6619a3.22,3.22,0,0,0-1.6156-2.1949c-.6139-.2289-1.8.3562-2.3995.93-3.1848,3.0493-6.2617,6.2111-9.3839,9.3261-.3892.3883-.8254.73-1.3763,1.2122-.412-.7325-.7264-1.2635-1.0147-1.8082q-3.6831-6.9594-7.3612-13.9215c-.5168-.9747-.9848-2.0018-2.376-1.9731-1.3765.0283-1.8248,1.0651-2.34,2.0377C46.2694,20.779,44.91,23.3741,43.352,26.3355Z"/><path d="M43.352,26.3355c1.5583-2.9614,2.9173-5.5565,4.2891-8.1448.5155-.9726.9638-2.0094,2.34-2.0377,1.3912-.0286,1.8593.9985,2.376,1.9731q3.6884,6.9567,7.3612,13.9215c.2883.5448.6027,1.0757,1.0147,1.8082.5509-.4826.9871-.8239,1.3763-1.2122,3.1222-3.1149,6.1991-6.2768,9.3839-9.3261.5991-.5736,1.7856-1.1587,2.3995-.93a3.22,3.22,0,0,1,1.6156,2.1949c2.1707,12.8776,4.2452,25.7715,6.3395,38.6619.7822,4.8146,1.53,9.6352,2.3613,14.4413a1.5117,1.5117,0,0,1-.869,1.888q-14.9643,8.245-29.8933,16.5539a6.9831,6.9831,0,0,1-7.3185-.0866Q31.65,87.895,17.1222,79.8369a2.2657,2.2657,0,0,1-1.32-2.7652q3.942-24.6185,7.7656-49.256Q25.335,16.5478,27.1011,5.28c.1773-1.1173.5-2.1805,1.8949-2.374,1.35-.1874,1.9823.6361,2.54,1.674q5.1028,9.5042,10.2414,18.9891C42.2209,24.39,42.7,25.192,43.352,26.3355Z"/></svg>