<svg id="Layer_1" data-name="Layer 1" xmlns="http://www.w3.org/2000/svg" viewBox="0 0 100 100"><title>skills</title><path d="M17.0486,21.3334C7.0561,53.1373,36.0667,82.4191,65.8763,80.1053a38.9919,38.9919,0,0,0,19.3431-6.3085c.85-.575,1.779-2.0962,2.8064-1.0936,1.2541,1.2239-.3724,2.2541-1.0611,3.12C77.9306,87.1766,65.88,91.4289,51.7024,90.8817,27.451,89.9458,6.1517,67.4588,6.9414,43.3928,7.2147,35.0654,10.4335,27.9681,17.0486,21.3334Z"/><path d="M92.179,49.225A19.802,19.802,0,0,1,83.38,59.0636c-11.0631,6.4833-22.4879,6.7289-33.575.3867C38.5677,53.0225,32.0322,43.321,32.2392,29.9553a21.3214,21.3214,0,0,1,6.5134-15.253C35.4461,32.1352,42.14,44.273,56.4858,52.0382c12.158,6.5811,24.2369,5.9362,35.2251-3.268A4.4737,4.4737,0,0,0,92.179,49.225Z"/><path d="M89.6622,32.4624c-6.2813,9.0068-18.8085,9.92-27.7267,2.825C52.9144,28.1106,51.0545,16.8121,57.88,9.0719c-2.0093,9.0694,1.056,16.1735,8.0366,21.3929C72.867,35.6617,80.5845,37.0018,89.6622,32.4624Z"/><path d="M91.7109,48.77c.183-.6482.6678-1.4438,1.2132-1.0319.4544.3432-.174,1.1224-.7475,1.4873A4.7579,4.7579,0,0,1,91.7109,48.77Z"/></svg>